<mxfile host="app.diagrams.net" modified="2024-06-27T08:37:56.160Z" agent="Mozilla/5.0 (Macintosh; Intel Mac OS X 10_15_7) AppleWebKit/537.36 (KHTML, like Gecko) Chrome/125.0.0.0 Safari/537.36 OPR/111.0.0.0" version="24.6.3" etag="eP6XS7vvKUdxA5yE2QeT" type="github">
  <diagram name="Page-1" id="-PSTgXRz7ioFzBB_JOEB">
    <mxGraphModel>
      <root>
        <mxCell id="0" />
        <mxCell id="1" parent="0" />
      </root>
    </mxGraphModel>
  </diagram>
</mxfile>
